<svg width="179" height="123" viewBox="0 0 179 123" fill="none" xmlns="http://www.w3.org/2000/svg">
<path d="M51.6094 7.00391C51.6094 9.08724 50.3529 10.832 47.8398 12.2383C46.7461 12.8503 45.9974 13.1562 45.5938 13.1562C45.4896 13.1562 45.4375 13.1042 45.4375 13C45.4375 12.9349 45.6263 12.8307 46.0039 12.6875C47.4622 12.1146 48.6536 11.3008 49.5781 10.2461C50.5026 9.17839 50.9648 8.08464 50.9648 6.96484C50.9648 5.92318 50.6068 5.07682 49.8906 4.42578C49.1745 3.77474 48.237 3.44922 47.0781 3.44922C43.3542 3.44922 40.0208 5.59115 37.0781 9.875C36.5703 10.6172 35.0273 13.4753 32.4492 18.4492C29.6497 23.8008 26.3555 27.0885 22.5664 28.3125C23.6992 28.4557 24.5911 28.5273 25.2422 28.5273C27.612 28.5273 29.6237 27.7526 31.2773 26.2031C32.7096 24.875 34.0052 23.3255 35.1641 21.5547C35.3073 21.3724 35.4115 21.2812 35.4766 21.2812C35.5286 21.2943 35.5547 21.3203 35.5547 21.3594C35.5547 21.4896 34.9427 22.3424 33.7188 23.918C32.2734 25.7799 30.9453 27.0625 29.7344 27.7656C28.5365 28.4557 27.0651 28.8008 25.3203 28.8008C24.2396 28.8008 23.0677 28.7096 21.8047 28.5273C20.8411 28.7878 19.9622 28.918 19.168 28.918C18.4909 28.918 18.1523 28.7747 18.1523 28.4883C18.1523 28.1628 18.6862 28 19.7539 28C20.3529 28 21.1016 28.0781 22 28.2344C23.7188 27.4792 25.0273 26.5482 25.9258 25.4414C26.8893 24.2435 28.3281 21.737 30.2422 17.9219L30.5547 17.2773H22.957C21.7331 19.556 20.6719 21.2422 19.7734 22.3359C18.875 23.4297 17.6706 24.4909 16.1602 25.5195C12.8398 27.7852 9.63672 28.918 6.55078 28.918C4.75391 28.918 3.28906 28.5404 2.15625 27.7852C1.03646 27.0169 0.476562 26.0208 0.476562 24.7969C0.476562 24.1589 0.665365 23.6055 1.04297 23.1367C1.43359 22.668 1.90234 22.4336 2.44922 22.4336C3.29557 22.4336 3.71875 22.8633 3.71875 23.7227C3.71875 24.1393 3.58854 24.4974 3.32812 24.7969C3.06771 25.0964 2.74219 25.2461 2.35156 25.2461C1.73958 25.2461 1.43359 24.9401 1.43359 24.3281C1.47266 24.0026 1.43359 23.8398 1.31641 23.8398C1.08203 23.8398 0.964844 24.1849 0.964844 24.875C0.964844 25.9427 1.46615 26.8216 2.46875 27.5117C3.47135 28.1888 4.75391 28.5273 6.31641 28.5273C9.0638 28.5273 11.4661 27.7135 13.5234 26.0859C15.5938 24.4453 17.9375 21.5091 20.5547 17.2773H14.5586L14.7148 16.8867H20.8086C20.9648 16.6263 21.2318 16.2096 21.6094 15.6367C24.3438 11.2096 26.9154 8.11719 29.3242 6.35938C29.832 5.98177 30.5091 5.57812 31.3555 5.14844C32.2018 4.70573 32.7227 4.48438 32.918 4.48438C32.9961 4.51042 33.0352 4.5625 33.0352 4.64062C33.0352 4.71875 32.9049 4.8099 32.6445 4.91406C31.043 5.5651 29.6107 6.6849 28.3477 8.27344C27.0846 9.86198 25.3529 12.7331 23.1523 16.8867H30.7695C33.2044 12.5378 35.8477 9.15885 38.6992 6.75C41.5638 4.32812 44.3568 3.11719 47.0781 3.11719C48.4193 3.11719 49.5065 3.48177 50.3398 4.21094C51.1862 4.92708 51.6094 5.85807 51.6094 7.00391ZM26.2773 7.47266C26.2773 7.74609 25.8932 8.29297 25.125 9.11328C23.9792 10.3503 22.8854 10.9688 21.8438 10.9688C21.1016 10.9688 20.4831 10.7083 19.9883 10.1875C19.4935 9.65365 19.2461 9.0026 19.2461 8.23438C19.2461 7.51823 19.513 6.6263 20.0469 5.55859C20.7109 4.23047 21.043 3.3125 21.043 2.80469C21.043 2.14062 20.7305 1.60677 20.1055 1.20312C19.4805 0.799479 18.6602 0.597656 17.6445 0.597656C14.7409 0.597656 12.013 1.76953 9.46094 4.11328C6.90885 6.44401 5.63281 8.9375 5.63281 11.5938C5.63281 12.9609 6.04948 14.0807 6.88281 14.9531C7.71615 15.8125 8.79688 16.2422 10.125 16.2422C12.6901 16.2422 14.8516 15.0573 16.6094 12.6875C16.6354 12.6094 16.6745 12.5638 16.7266 12.5508C16.8307 12.5508 16.8828 12.6094 16.8828 12.7266C16.8828 13 16.4661 13.5013 15.6328 14.2305C13.9141 15.7799 12.0521 16.5547 10.0469 16.5547C8.64062 16.5547 7.49479 16.099 6.60938 15.1875C5.72396 14.276 5.28125 13.0911 5.28125 11.6328C5.28125 8.82031 6.58333 6.22917 9.1875 3.85938C11.8047 1.47656 14.6628 0.285156 17.7617 0.285156C20.4831 0.285156 21.8438 1.48307 21.8438 3.87891C21.8438 4.69922 21.5638 5.68229 21.0039 6.82812C20.444 7.97396 20.1641 8.73568 20.1641 9.11328C20.1641 10.1029 20.6979 10.5977 21.7656 10.5977C22.4167 10.5977 23.1589 10.2917 23.9922 9.67969C24.8255 9.06771 25.4701 8.34505 25.9258 7.51172C25.9909 7.38151 26.056 7.31641 26.1211 7.31641C26.2253 7.31641 26.2773 7.36849 26.2773 7.47266ZM48.8945 21.8867C48.8945 22.1602 47.944 23.4232 46.043 25.6758C44.5065 27.5247 43.2956 28.4492 42.4102 28.4492C41.8112 28.4492 41.3229 28.2279 40.9453 27.7852C40.5677 27.3294 40.3789 26.763 40.3789 26.0859C40.3789 25.3828 40.5872 24.6211 41.0039 23.8008C39.7018 25.6237 38.7057 26.8542 38.0156 27.4922C37.3255 28.1302 36.6549 28.4492 36.0039 28.4492C35.3138 28.4492 34.7344 28.1562 34.2656 27.5703C33.7969 26.9714 33.5625 26.2227 33.5625 25.3242C33.5625 22.8242 35.3268 20.6107 38.8555 18.6836C40.4049 17.8242 41.6549 17.3945 42.6055 17.3945C43.4128 17.3945 43.8164 17.7852 43.8164 18.5664C43.8164 18.7878 43.7643 19.0807 43.6602 19.4453L44.6562 17.5508C45.0469 17.6419 45.3919 17.6875 45.6914 17.6875C46.043 17.6875 46.4987 17.6419 47.0586 17.5508L43.6016 23.2734C42.4036 25.2786 41.8047 26.6003 41.8047 27.2383C41.8047 27.8503 42.0586 28.1562 42.5664 28.1562C43.0872 28.1562 43.9206 27.5638 45.0664 26.3789C46.2122 25.181 47.3776 23.7096 48.5625 21.9648C48.6406 21.8346 48.7122 21.7695 48.7773 21.7695C48.8555 21.7695 48.8945 21.8086 48.8945 21.8867ZM43.5234 18.6445C43.5234 18.0065 43.2305 17.6875 42.6445 17.6875C41.4466 17.6875 39.8711 18.8594 37.918 21.2031C35.9779 23.5469 35.0078 25.4414 35.0078 26.8867C35.0078 27.7331 35.3854 28.1562 36.1406 28.1562C37.0391 28.1562 38.5951 26.6654 40.8086 23.6836C42.6185 21.2357 43.5234 19.556 43.5234 18.6445ZM58.25 20.5195C58.25 22.6419 56.9284 24.5755 54.2852 26.3203C52.1367 27.7396 50.457 28.4492 49.2461 28.4492C48.4128 28.4492 47.9961 28.0586 47.9961 27.2773C47.9961 27.043 48.0612 26.724 48.1914 26.3203L40.7109 38.8008C40.2552 38.6966 39.8841 38.6445 39.5977 38.6445C39.168 38.6445 38.7448 38.7227 38.3281 38.8789L54.3633 12.5117C54.7148 12.6289 55.0599 12.6875 55.3984 12.6875C55.75 12.6875 56.1797 12.6289 56.6875 12.5117L50.8867 21.8867C52.2799 20.0378 53.2891 18.8268 53.9141 18.2539C54.5521 17.681 55.1836 17.3945 55.8086 17.3945C56.4987 17.3945 57.0781 17.694 57.5469 18.293C58.0156 18.8919 58.25 19.6341 58.25 20.5195ZM56.8047 18.957C56.8047 18.1107 56.4271 17.6875 55.6719 17.6875C54.7214 17.6875 53.1263 19.2174 50.8867 22.2773C49.1549 24.6471 48.2891 26.2747 48.2891 27.1602C48.2891 27.8242 48.5951 28.1562 49.207 28.1562C50.4049 28.1562 51.9674 26.9909 53.8945 24.6602C55.8346 22.3164 56.8047 20.4154 56.8047 18.957ZM68.875 20.5195C68.875 22.6419 67.5534 24.5755 64.9102 26.3203C62.7617 27.7396 61.082 28.4492 59.8711 28.4492C59.0378 28.4492 58.6211 28.0586 58.6211 27.2773C58.6211 27.043 58.6862 26.724 58.8164 26.3203L51.3359 38.8008C50.8802 38.6966 50.5091 38.6445 50.2227 38.6445C49.793 38.6445 49.3698 38.7227 48.9531 38.8789L64.9883 12.5117C65.3398 12.6289 65.6849 12.6875 66.0234 12.6875C66.375 12.6875 66.8047 12.6289 67.3125 12.5117L61.5117 21.8867C62.9049 20.0378 63.9141 18.8268 64.5391 18.2539C65.1771 17.681 65.8086 17.3945 66.4336 17.3945C67.1237 17.3945 67.7031 17.694 68.1719 18.293C68.6406 18.8919 68.875 19.6341 68.875 20.5195ZM67.4297 18.957C67.4297 18.1107 67.0521 17.6875 66.2969 17.6875C65.3464 17.6875 63.7513 19.2174 61.5117 22.2773C59.7799 24.6471 58.9141 26.2747 58.9141 27.1602C58.9141 27.8242 59.2201 28.1562 59.832 28.1562C61.0299 28.1562 62.5924 26.9909 64.5195 24.6602C66.4596 22.3164 67.4297 20.4154 67.4297 18.957ZM82.4883 21.8867C82.4883 22.082 81.7721 22.974 80.3398 24.5625C78.7513 26.3073 76.681 27.8828 74.1289 29.2891L73.1719 31.0078C71.2839 34.3932 69.3112 36.9128 67.2539 38.5664C65.1315 40.2721 63.2891 41.125 61.7266 41.125C61.1927 41.125 60.75 40.9557 60.3984 40.6172C60.0339 40.2786 59.8516 39.862 59.8516 39.3672C59.8516 36.75 62.8659 34.0417 68.8945 31.2422C69.3893 30.9948 70.1315 30.6497 71.1211 30.207L71.4141 30.0312L74.8516 23.918C73.4974 25.7799 72.5143 27.0039 71.9023 27.5898C71.2904 28.1628 70.6719 28.4492 70.0469 28.4492C69.513 28.4492 69.0443 28.2214 68.6406 27.7656C68.25 27.3099 68.0547 26.776 68.0547 26.1641C68.0547 25.4219 68.5169 24.263 69.4414 22.6875L72.4492 17.6094C72.7487 17.6615 73.0938 17.6875 73.4844 17.6875C73.8229 17.6875 74.2917 17.6419 74.8906 17.5508L71.043 23.8008C69.9492 25.5716 69.4023 26.7305 69.4023 27.2773C69.4023 27.8633 69.6693 28.1562 70.2031 28.1562C71.6094 28.1562 73.7708 25.6628 76.6875 20.6758L78.4844 17.6094C78.7839 17.6615 79.1484 17.6875 79.5781 17.6875C79.9297 17.6875 80.3659 17.6419 80.8867 17.5508C79.2721 20.1159 77.0846 23.8789 74.3242 28.8398C75.9128 28.0195 77.2539 27.1341 78.3477 26.1836C79.4414 25.2201 80.6654 23.8659 82.0195 22.1211C82.2018 21.8867 82.319 21.7695 82.3711 21.7695C82.4492 21.7695 82.4883 21.8086 82.4883 21.8867ZM71.2188 30.3633C71.0104 30.4805 70.2747 30.8516 69.0117 31.4766C63.0872 34.4193 60.125 37.0625 60.125 39.4062C60.125 40.3828 60.6719 40.8711 61.7656 40.8711C63.1458 40.8711 64.5195 40.1224 65.8867 38.625C67.2539 37.1276 68.9466 34.5039 70.9648 30.7539C70.9648 30.7539 71.0495 30.6237 71.2188 30.3633ZM57.2344 47.207C57.2344 47.5195 57.0521 47.6758 56.6875 47.6758H56.3555C55.6393 47.5977 55.0534 47.5586 54.5977 47.5586C51.2383 47.5586 47.2799 49.0234 42.7227 51.9531C40.5352 53.3724 38.6797 54.8112 37.1562 56.2695C35.6849 57.7018 32.9245 60.7161 28.875 65.3125C24.0964 70.7552 20.4961 74.3555 18.0742 76.1133C16.7982 77.0508 16.0951 77.5195 15.9648 77.5195C15.8867 77.5195 15.8477 77.4805 15.8477 77.4023C15.8477 77.3893 15.9909 77.1875 16.2773 76.7969C18.582 73.8151 20.5547 70.2799 22.1953 66.1914C23.849 62.1029 24.6758 58.6914 24.6758 55.957C24.6758 51.556 22.8919 49.3555 19.3242 49.3555C17.918 49.3555 16.2969 49.8372 14.4609 50.8008C12.625 51.7643 10.9518 53.0143 9.44141 54.5508C7.80078 56.2305 6.48568 58.1055 5.49609 60.1758C4.51953 62.2331 4.03125 64.1602 4.03125 65.957C4.03125 67.5716 4.46745 68.8477 5.33984 69.7852C6.21224 70.7227 7.39062 71.1914 8.875 71.1914C11.7656 71.1914 14.5781 69.3424 17.3125 65.6445C19.2656 63.0013 20.2422 60.638 20.2422 58.5547C20.2422 57.6172 20.0078 56.875 19.5391 56.3281C19.0833 55.7682 18.4648 55.4883 17.6836 55.4883C17.2409 55.4883 16.7982 55.5924 16.3555 55.8008C15.9258 55.9961 15.7109 56.1979 15.7109 56.4062C15.7109 56.4844 15.7565 56.5234 15.8477 56.5234H16.0039C16.3685 56.4714 16.5703 56.4453 16.6094 56.4453C17.1953 56.4453 17.4883 56.7643 17.4883 57.4023C17.4883 57.806 17.332 58.1576 17.0195 58.457C16.707 58.7435 16.3424 58.8867 15.9258 58.8867C15.1185 58.8867 14.7148 58.4701 14.7148 57.6367C14.7148 56.9596 15.0078 56.3737 15.5938 55.8789C16.1797 55.3711 16.8763 55.1172 17.6836 55.1172C18.556 55.1172 19.2591 55.4297 19.793 56.0547C20.3268 56.6667 20.5938 57.474 20.5938 58.4766C20.5938 61.0286 19.3307 63.8281 16.8047 66.875C14.2266 69.974 11.5703 71.5234 8.83594 71.5234C7.11719 71.5234 5.71094 70.9245 4.61719 69.7266C3.53646 68.5286 2.99609 66.9792 2.99609 65.0781C2.99609 61.4583 4.8125 57.8841 8.44531 54.3555C12.0781 50.8138 15.7435 49.043 19.4414 49.043C21.6419 49.043 23.4258 49.8112 24.793 51.3477C26.1602 52.8711 26.8438 54.8763 26.8438 57.3633C26.8438 60.0195 26.0951 62.8125 24.5977 65.7422C23.1003 68.6719 20.6849 72.0768 17.3516 75.957C17.2214 76.1133 17.1562 76.2044 17.1562 76.2305L17.1953 76.2891C17.4167 76.2891 18.2305 75.6836 19.6367 74.4727C20.7174 73.5612 21.8372 72.474 22.9961 71.2109C24.0378 70.0781 26.7852 66.9792 31.2383 61.9141C33.8685 58.9193 36.1862 56.5625 38.1914 54.8438C40.1966 53.112 42.4427 51.5365 44.9297 50.1172C48.9792 47.7995 52.5469 46.6406 55.6328 46.6406C56.7005 46.6406 57.2344 46.8294 57.2344 47.207ZM44.3242 68.8867C44.3242 69.1602 43.3737 70.4232 41.4727 72.6758C39.9362 74.5247 38.7253 75.4492 37.8398 75.4492C37.2409 75.4492 36.7526 75.2279 36.375 74.7852C35.9974 74.3294 35.8086 73.763 35.8086 73.0859C35.8086 72.3828 36.0169 71.6211 36.4336 70.8008C35.1315 72.6237 34.1354 73.8542 33.4453 74.4922C32.7552 75.1302 32.0846 75.4492 31.4336 75.4492C30.7435 75.4492 30.1641 75.1562 29.6953 74.5703C29.2266 73.9714 28.9922 73.2227 28.9922 72.3242C28.9922 69.8242 30.7565 67.6107 34.2852 65.6836C35.8346 64.8242 37.0846 64.3945 38.0352 64.3945C38.8424 64.3945 39.2461 64.7852 39.2461 65.5664C39.2461 65.7878 39.194 66.0807 39.0898 66.4453L40.0859 64.5508C40.4766 64.6419 40.8216 64.6875 41.1211 64.6875C41.4727 64.6875 41.9284 64.6419 42.4883 64.5508L39.0312 70.2734C37.8333 72.2786 37.2344 73.6003 37.2344 74.2383C37.2344 74.8503 37.4883 75.1562 37.9961 75.1562C38.5169 75.1562 39.3503 74.5638 40.4961 73.3789C41.6419 72.181 42.8073 70.7096 43.9922 68.9648C44.0703 68.8346 44.1419 68.7695 44.207 68.7695C44.2852 68.7695 44.3242 68.8086 44.3242 68.8867ZM38.9531 65.6445C38.9531 65.0065 38.6602 64.6875 38.0742 64.6875C36.8763 64.6875 35.3008 65.8594 33.3477 68.2031C31.4076 70.5469 30.4375 72.4414 30.4375 73.8867C30.4375 74.7331 30.8151 75.1562 31.5703 75.1562C32.4688 75.1562 34.0247 73.6654 36.2383 70.6836C38.0482 68.2357 38.9531 66.556 38.9531 65.6445ZM54.6367 55.0391C49.168 64.1406 45.9779 69.4922 45.0664 71.0938C44.168 72.6953 43.7188 73.7565 43.7188 74.2773C43.7188 74.8633 43.9661 75.1562 44.4609 75.1562C45.5547 75.1562 47.5599 73.0924 50.4766 68.9648C50.5417 68.8346 50.6198 68.7695 50.7109 68.7695C50.763 68.7826 50.7891 68.8216 50.7891 68.8867C50.7891 68.9648 50.724 69.069 50.5938 69.1992L49.7539 70.3516C47.293 73.75 45.4766 75.4492 44.3047 75.4492C43.7448 75.4492 43.2826 75.2409 42.918 74.8242C42.5664 74.3945 42.3906 73.8542 42.3906 73.2031C42.3906 72.487 42.5534 71.7969 42.8789 71.1328C43.2174 70.4557 44.3503 68.5156 46.2773 65.3125C48.6341 61.3932 50.6198 57.9948 52.2344 55.1172C52.625 55.2214 52.9701 55.2734 53.2695 55.2734C53.7643 55.2734 54.2201 55.1953 54.6367 55.0391ZM60.6328 68.8867C60.6328 68.9258 60.5156 69.0951 60.2812 69.3945L59.4414 70.4492C56.7461 73.7826 54.4349 75.4492 52.5078 75.4492C51.5964 75.4492 50.8281 75.1237 50.2031 74.4727C49.5911 73.8086 49.2852 72.9818 49.2852 71.9922C49.2852 69.6484 50.9193 67.5846 54.1875 65.8008C55.9062 64.8633 57.306 64.3945 58.3867 64.3945C58.8555 64.3945 59.2526 64.5378 59.5781 64.8242C59.9167 65.0977 60.0859 65.4362 60.0859 65.8398C60.0859 66.7773 59.474 67.5781 58.25 68.2422C57.026 68.8932 54.9818 69.5052 52.1172 70.0781C51.2318 71.4193 50.7891 72.5391 50.7891 73.4375C50.7891 74.5573 51.3945 75.1172 52.6055 75.1172C54.6628 75.1172 57.1823 73.1055 60.1641 69.082C60.3203 68.8737 60.4505 68.7695 60.5547 68.7695C60.6068 68.7826 60.6328 68.8216 60.6328 68.8867ZM58.9922 65.2734C58.9922 64.8568 58.7643 64.6484 58.3086 64.6484C57.6185 64.6484 56.707 65.1302 55.5742 66.0938C54.4544 67.0443 53.3542 68.2812 52.2734 69.8047C54.1484 69.3229 55.737 68.6458 57.0391 67.7734C58.3411 66.888 58.9922 66.0547 58.9922 65.2734ZM76.2773 68.8867C76.2773 69.1602 75.3333 70.4232 73.4453 72.6758C71.8958 74.5247 70.6784 75.4492 69.793 75.4492C69.207 75.4492 68.7122 75.2214 68.3086 74.7656C67.918 74.3099 67.7227 73.75 67.7227 73.0859C67.7227 72.5 67.8398 71.9596 68.0742 71.4648C68.3216 70.957 68.9531 69.9609 69.9688 68.4766C71.0234 66.9141 71.5508 65.918 71.5508 65.4883C71.5508 64.9544 71.2708 64.6875 70.7109 64.6875C68.8099 64.6875 65.8802 68.2161 61.9219 75.2734C61.2839 75.2214 60.8997 75.1953 60.7695 75.1953C60.3138 75.1953 59.8841 75.2214 59.4805 75.2734L62.5273 70.4492C64.2591 67.6888 65.125 65.9635 65.125 65.2734C65.125 64.8828 64.9622 64.6875 64.6367 64.6875C63.9727 64.6875 62.6641 66.0872 60.7109 68.8867C60.5938 69.056 60.5026 69.1471 60.4375 69.1602C60.3724 69.1602 60.3333 69.1211 60.3203 69.043C60.3333 68.9779 60.3594 68.9258 60.3984 68.8867L60.7695 68.3984C62.7617 65.7292 64.1029 64.3945 64.793 64.3945C65.2357 64.3945 65.6133 64.5964 65.9258 65C66.2383 65.4036 66.3945 65.8854 66.3945 66.4453C66.3945 67.2786 65.9062 68.4375 64.9297 69.9219C66.4661 67.7995 67.6445 66.3477 68.4648 65.5664C69.2982 64.7852 70.0664 64.3945 70.7695 64.3945C71.3424 64.3945 71.8242 64.6289 72.2148 65.0977C72.6055 65.5664 72.8008 66.1458 72.8008 66.8359C72.8008 67.7083 72.2018 69.043 71.0039 70.8398C69.7799 72.6758 69.168 73.8477 69.168 74.3555C69.168 74.8893 69.4349 75.1562 69.9688 75.1562C71.1276 75.1562 73.1263 73.0924 75.9648 68.9648C76.0299 68.8346 76.0951 68.7695 76.1602 68.7695C76.2383 68.7695 76.2773 68.8086 76.2773 68.8867ZM83.5039 64.3945L83.3477 64.6875H80.7891L76.4336 72.1289C75.8997 73.0273 75.6328 73.7435 75.6328 74.2773C75.6328 74.8633 75.9388 75.1562 76.5508 75.1562C77.7357 75.1562 79.7344 73.0924 82.5469 68.9648C82.638 68.8346 82.7161 68.7695 82.7812 68.7695C82.8594 68.7695 82.8984 68.8086 82.8984 68.8867C82.8854 68.9258 82.8203 69.0299 82.7031 69.1992L81.8633 70.3516C79.4154 73.75 77.5729 75.4492 76.3359 75.4492C75.724 75.4492 75.2096 75.2279 74.793 74.7852C74.3893 74.3424 74.1875 73.7891 74.1875 73.125C74.1875 72.3438 74.5326 71.3672 75.2227 70.1953L78.5039 64.6875H76.5117L76.707 64.3945H78.6602L80.9453 60.6055C81.3359 60.7096 81.707 60.7617 82.0586 60.7617C82.4232 60.7617 82.8008 60.7096 83.1914 60.6055L80.9453 64.3945H83.5039ZM89.3047 60.8008C89.3047 61.2565 89.1094 61.6862 88.7188 62.0898C88.3411 62.4805 87.9245 62.6758 87.4688 62.6758C86.8828 62.6758 86.5898 62.3828 86.5898 61.7969C86.5898 61.3672 86.7917 60.957 87.1953 60.5664C87.599 60.1628 88.0221 59.9609 88.4648 59.9609C89.0247 59.9609 89.3047 60.2409 89.3047 60.8008ZM89.5781 68.8867C89.5651 68.9258 89.5 69.0299 89.3828 69.1992L88.543 70.3516C86.0951 73.75 84.2266 75.4492 82.9375 75.4492C82.3255 75.4492 81.8112 75.2344 81.3945 74.8047C80.9909 74.362 80.7891 73.8151 80.7891 73.1641C80.7891 72.4089 81.2383 71.263 82.1367 69.7266L85.1836 64.5508C85.5872 64.6419 85.9062 64.6875 86.1406 64.6875C86.4922 64.6875 86.987 64.6419 87.625 64.5508L83.1914 71.8359C82.5534 72.8906 82.2344 73.7044 82.2344 74.2773C82.2344 74.8633 82.5404 75.1562 83.1523 75.1562C84.3112 75.1562 86.349 73.0924 89.2656 68.9648C89.3307 68.8346 89.3958 68.7695 89.4609 68.7695C89.5391 68.7695 89.5781 68.8086 89.5781 68.8867ZM105.262 68.8867C105.262 69.1602 104.318 70.4232 102.43 72.6758C100.88 74.5247 99.6628 75.4492 98.7773 75.4492C98.1914 75.4492 97.6966 75.2214 97.293 74.7656C96.9023 74.3099 96.707 73.75 96.707 73.0859C96.707 72.5 96.8242 71.9596 97.0586 71.4648C97.306 70.957 97.9375 69.9609 98.9531 68.4766C100.008 66.9141 100.535 65.918 100.535 65.4883C100.535 64.9544 100.255 64.6875 99.6953 64.6875C97.7943 64.6875 94.8646 68.2161 90.9062 75.2734C90.2682 75.2214 89.8841 75.1953 89.7539 75.1953C89.2982 75.1953 88.8685 75.2214 88.4648 75.2734L91.5117 70.4492C93.2435 67.6888 94.1094 65.9635 94.1094 65.2734C94.1094 64.8828 93.9466 64.6875 93.6211 64.6875C92.957 64.6875 91.6484 66.0872 89.6953 68.8867C89.5781 69.056 89.487 69.1471 89.4219 69.1602C89.3568 69.1602 89.3177 69.1211 89.3047 69.043C89.3177 68.9779 89.3438 68.9258 89.3828 68.8867L89.7539 68.3984C91.7461 65.7292 93.0872 64.3945 93.7773 64.3945C94.2201 64.3945 94.5977 64.5964 94.9102 65C95.2227 65.4036 95.3789 65.8854 95.3789 66.4453C95.3789 67.2786 94.8906 68.4375 93.9141 69.9219C95.4505 67.7995 96.6289 66.3477 97.4492 65.5664C98.2826 64.7852 99.0508 64.3945 99.7539 64.3945C100.327 64.3945 100.809 64.6289 101.199 65.0977C101.59 65.5664 101.785 66.1458 101.785 66.8359C101.785 67.7083 101.186 69.043 99.9883 70.8398C98.7643 72.6758 98.1523 73.8477 98.1523 74.3555C98.1523 74.8893 98.4193 75.1562 98.9531 75.1562C100.112 75.1562 102.111 73.0924 104.949 68.9648C105.014 68.8346 105.079 68.7695 105.145 68.7695C105.223 68.7695 105.262 68.8086 105.262 68.8867ZM115.125 68.8867C115.125 68.9258 115.008 69.0951 114.773 69.3945L113.934 70.4492C111.238 73.7826 108.927 75.4492 107 75.4492C106.089 75.4492 105.32 75.1237 104.695 74.4727C104.083 73.8086 103.777 72.9818 103.777 71.9922C103.777 69.6484 105.411 67.5846 108.68 65.8008C110.398 64.8633 111.798 64.3945 112.879 64.3945C113.348 64.3945 113.745 64.5378 114.07 64.8242C114.409 65.0977 114.578 65.4362 114.578 65.8398C114.578 66.7773 113.966 67.5781 112.742 68.2422C111.518 68.8932 109.474 69.5052 106.609 70.0781C105.724 71.4193 105.281 72.5391 105.281 73.4375C105.281 74.5573 105.887 75.1172 107.098 75.1172C109.155 75.1172 111.674 73.1055 114.656 69.082C114.812 68.8737 114.943 68.7695 115.047 68.7695C115.099 68.7826 115.125 68.8216 115.125 68.8867ZM113.484 65.2734C113.484 64.8568 113.257 64.6484 112.801 64.6484C112.111 64.6484 111.199 65.1302 110.066 66.0938C108.947 67.0443 107.846 68.2812 106.766 69.8047C108.641 69.3229 110.229 68.6458 111.531 67.7734C112.833 66.888 113.484 66.0547 113.484 65.2734ZM125.809 55.5273C125.809 56.4128 125.327 57.3698 124.363 58.3984C123.999 58.7891 123.517 59.1797 122.918 59.5703C122.319 59.9609 121.896 60.1562 121.648 60.1562C121.57 60.1562 121.531 60.1172 121.531 60.0391C121.531 59.974 121.583 59.9219 121.688 59.8828C123.107 59.349 123.816 58.763 123.816 58.125C123.816 58.0469 123.751 58.0078 123.621 58.0078C123.022 58.0078 122.723 57.7279 122.723 57.168C122.723 56.6602 122.99 56.1198 123.523 55.5469C124.057 54.974 124.552 54.6875 125.008 54.6875C125.542 54.6875 125.809 54.9674 125.809 55.5273ZM130.086 61.2891C130.086 61.8099 129.272 62.8451 127.645 64.3945C127.566 64.7982 127.527 65.1497 127.527 65.4492C127.527 66.2044 127.872 67.4023 128.562 69.043C128.914 69.8633 129.09 70.5534 129.09 71.1133C129.09 72.2852 128.517 73.3008 127.371 74.1602C126.238 75.0195 124.891 75.4492 123.328 75.4492C122.443 75.4492 121.733 75.2018 121.199 74.707C120.678 74.1992 120.418 73.5221 120.418 72.6758C120.418 71.6992 120.763 70.7487 121.453 69.8242C122.156 68.8997 122.879 68.4375 123.621 68.4375C123.751 68.4375 123.868 68.4635 123.973 68.5156L125.535 66.6016C126.004 66.0417 126.629 65.2669 127.41 64.2773C127.632 63.3659 127.97 62.5846 128.426 61.9336C128.882 61.2826 129.331 60.957 129.773 60.957C129.982 60.957 130.086 61.0677 130.086 61.2891ZM127.371 69.0039C127.371 68.6133 127.358 68.2292 127.332 67.8516C127.306 67.4609 127.293 66.9076 127.293 66.1914C127.293 65.6055 127.319 65.1172 127.371 64.7266C126.642 65.651 125.587 66.9531 124.207 68.6328C124.454 68.8411 124.578 69.0951 124.578 69.3945C124.578 70.1628 123.947 70.6836 122.684 70.957C122.176 71.0742 121.733 71.3542 121.355 71.7969C120.991 72.2266 120.809 72.6823 120.809 73.1641C120.809 73.6849 120.997 74.1211 121.375 74.4727C121.753 74.8242 122.221 75 122.781 75C123.875 75 124.91 74.3685 125.887 73.1055C126.876 71.8294 127.371 70.4622 127.371 69.0039ZM156.102 55.2344C151.219 62.9948 148.139 67.9557 146.863 70.1172C145.574 72.3177 144.93 73.7044 144.93 74.2773C144.93 74.8633 145.197 75.1562 145.73 75.1562C146.915 75.1562 148.927 73.0924 151.766 68.9648C151.844 68.8346 151.915 68.7695 151.98 68.7695C152.059 68.7695 152.098 68.8086 152.098 68.8867C152.085 68.9258 152.02 69.0299 151.902 69.1992L151.062 70.3516C148.602 73.75 146.785 75.4492 145.613 75.4492C145.014 75.4492 144.526 75.2279 144.148 74.7852C143.771 74.3294 143.582 73.75 143.582 73.0469C143.582 72.3438 143.816 71.5299 144.285 70.6055C142.007 73.8346 140.314 75.4492 139.207 75.4492C138.517 75.4492 137.938 75.1562 137.469 74.5703C137 73.9714 136.766 73.2227 136.766 72.3242C136.766 70.1758 138.1 68.2292 140.77 66.4844C142.892 65.0911 144.559 64.3945 145.77 64.3945C146.577 64.3945 146.98 64.7852 146.98 65.5664C146.98 65.931 146.87 66.3411 146.648 66.7969L153.621 55.1172C154.051 55.2474 154.474 55.3125 154.891 55.3125C154.995 55.3125 155.398 55.2865 156.102 55.2344ZM146.688 65.7227C146.688 65.0326 146.368 64.6875 145.73 64.6875C144.559 64.6875 143.009 65.8594 141.082 68.2031C139.168 70.5339 138.211 72.4154 138.211 73.8477C138.211 74.7201 138.569 75.1562 139.285 75.1562C140.327 75.1562 142.117 73.3464 144.656 69.7266C146.01 67.7734 146.688 66.4388 146.688 65.7227ZM165.887 68.8867C165.887 69.1602 164.936 70.4232 163.035 72.6758C161.499 74.5247 160.288 75.4492 159.402 75.4492C158.803 75.4492 158.315 75.2279 157.938 74.7852C157.56 74.3294 157.371 73.763 157.371 73.0859C157.371 72.3828 157.579 71.6211 157.996 70.8008C156.694 72.6237 155.698 73.8542 155.008 74.4922C154.318 75.1302 153.647 75.4492 152.996 75.4492C152.306 75.4492 151.727 75.1562 151.258 74.5703C150.789 73.9714 150.555 73.2227 150.555 72.3242C150.555 69.8242 152.319 67.6107 155.848 65.6836C157.397 64.8242 158.647 64.3945 159.598 64.3945C160.405 64.3945 160.809 64.7852 160.809 65.5664C160.809 65.7878 160.757 66.0807 160.652 66.4453L161.648 64.5508C162.039 64.6419 162.384 64.6875 162.684 64.6875C163.035 64.6875 163.491 64.6419 164.051 64.5508L160.594 70.2734C159.396 72.2786 158.797 73.6003 158.797 74.2383C158.797 74.8503 159.051 75.1562 159.559 75.1562C160.079 75.1562 160.913 74.5638 162.059 73.3789C163.204 72.181 164.37 70.7096 165.555 68.9648C165.633 68.8346 165.704 68.7695 165.77 68.7695C165.848 68.7695 165.887 68.8086 165.887 68.8867ZM160.516 65.6445C160.516 65.0065 160.223 64.6875 159.637 64.6875C158.439 64.6875 156.863 65.8594 154.91 68.2031C152.97 70.5469 152 72.4414 152 73.8867C152 74.7331 152.378 75.1562 153.133 75.1562C154.031 75.1562 155.587 73.6654 157.801 70.6836C159.611 68.2357 160.516 66.556 160.516 65.6445ZM178.23 68.8867C178.23 69.082 177.514 69.974 176.082 71.5625C174.493 73.3073 172.423 74.8828 169.871 76.2891L168.914 78.0078C167.026 81.3932 165.053 83.9128 162.996 85.5664C160.874 87.2721 159.031 88.125 157.469 88.125C156.935 88.125 156.492 87.9557 156.141 87.6172C155.776 87.2786 155.594 86.862 155.594 86.3672C155.594 83.75 158.608 81.0417 164.637 78.2422C165.132 77.9948 165.874 77.6497 166.863 77.207L167.156 77.0312L170.594 70.918C169.24 72.7799 168.257 74.0039 167.645 74.5898C167.033 75.1628 166.414 75.4492 165.789 75.4492C165.255 75.4492 164.786 75.2214 164.383 74.7656C163.992 74.3099 163.797 73.776 163.797 73.1641C163.797 72.4219 164.259 71.263 165.184 69.6875L168.191 64.6094C168.491 64.6615 168.836 64.6875 169.227 64.6875C169.565 64.6875 170.034 64.6419 170.633 64.5508L166.785 70.8008C165.691 72.5716 165.145 73.7305 165.145 74.2773C165.145 74.8633 165.411 75.1562 165.945 75.1562C167.352 75.1562 169.513 72.6628 172.43 67.6758L174.227 64.6094C174.526 64.6615 174.891 64.6875 175.32 64.6875C175.672 64.6875 176.108 64.6419 176.629 64.5508C175.014 67.1159 172.827 70.8789 170.066 75.8398C171.655 75.0195 172.996 74.1341 174.09 73.1836C175.184 72.2201 176.408 70.8659 177.762 69.1211C177.944 68.8867 178.061 68.7695 178.113 68.7695C178.191 68.7695 178.23 68.8086 178.23 68.8867ZM166.961 77.3633C166.753 77.4805 166.017 77.8516 164.754 78.4766C158.829 81.4193 155.867 84.0625 155.867 86.4062C155.867 87.3828 156.414 87.8711 157.508 87.8711C158.888 87.8711 160.262 87.1224 161.629 85.625C162.996 84.1276 164.689 81.5039 166.707 77.7539C166.707 77.7539 166.792 77.6237 166.961 77.3633ZM46.4336 98.0352C46.4336 98.7383 45.7305 99.3372 44.3242 99.832C42.918 100.314 41.1992 100.555 39.168 100.555C37.1237 100.555 34.5846 100.275 31.5508 99.7148C29.9492 100.548 28.4844 101.785 27.1562 103.426C25.8281 105.053 24.4023 107.365 22.8789 110.359C21.3555 113.354 20.2357 115.353 19.5195 116.355C18.8164 117.345 17.8464 118.309 16.6094 119.246C13.3411 121.668 9.94922 122.879 6.43359 122.879C4.55859 122.879 3.02214 122.482 1.82422 121.688C0.639323 120.893 0.046875 119.865 0.046875 118.602C0.046875 117.964 0.235677 117.417 0.613281 116.961C0.990885 116.505 1.4401 116.277 1.96094 116.277C2.80729 116.277 3.23047 116.72 3.23047 117.605C3.23047 118.022 3.10026 118.38 2.83984 118.68C2.57943 118.979 2.26042 119.129 1.88281 119.129C1.27083 119.129 0.964844 118.829 0.964844 118.23C0.964844 117.918 0.91276 117.762 0.808594 117.762C0.58724 117.762 0.476562 118.081 0.476562 118.719C0.476562 119.773 1.01693 120.665 2.09766 121.395C3.19141 122.124 4.53255 122.488 6.12109 122.488C9.61068 122.488 12.7422 120.913 15.5156 117.762C16.8177 116.29 18.4974 113.862 20.5547 110.477C23.9141 104.982 27.4232 101.368 31.082 99.6367C30.3789 99.5195 29.3242 99.3047 27.918 98.9922C24.6107 98.276 22.0781 97.918 20.3203 97.918C20.138 97.918 19.5911 97.944 18.6797 97.9961C19.2917 99.1419 19.5977 100.451 19.5977 101.922C19.5977 104.786 18.5104 107.475 16.3359 109.988C14.1615 112.501 11.8372 113.758 9.36328 113.758C8.33464 113.758 7.49479 113.419 6.84375 112.742C6.20573 112.052 5.88672 111.167 5.88672 110.086C5.88672 108.602 6.44661 106.961 7.56641 105.164C8.69922 103.354 10.1576 101.779 11.9414 100.438C13.7383 99.0833 15.7044 98.1393 17.8398 97.6055C16.8112 96.2122 15.3464 95.5156 13.4453 95.5156C11.8438 95.5156 10.2227 95.9844 8.58203 96.9219C6.95443 97.8464 5.52214 99.1094 4.28516 100.711C4.10286 100.958 3.97917 101.082 3.91406 101.082C3.83594 101.082 3.78385 101.043 3.75781 100.965C3.75781 100.743 4.29167 100.099 5.35938 99.0312C7.92448 96.4792 10.6068 95.2031 13.4062 95.2031C15.5807 95.2031 17.2344 95.9648 18.3672 97.4883C19.9427 97.0326 21.7526 96.8047 23.7969 96.8047C24.8516 96.8047 25.8151 96.8698 26.6875 97C27.612 97.1432 29.8776 97.5859 33.4844 98.3281C36.4922 97.013 39.3828 96.3555 42.1562 96.3555C45.0078 96.3555 46.4336 96.9154 46.4336 98.0352ZM46.1211 98.0742C46.1211 97.6966 45.75 97.3776 45.0078 97.1172C44.2786 96.8568 43.3542 96.7266 42.2344 96.7266C39.4479 96.7266 36.7461 97.3125 34.1289 98.4844C34.4544 98.5365 35.3203 98.6927 36.7266 98.9531C38.8099 99.3568 40.6589 99.5586 42.2734 99.5586C43.3281 99.5586 44.2331 99.4154 44.9883 99.1289C45.7435 98.8294 46.1211 98.4779 46.1211 98.0742ZM18.8359 100.965C18.8359 99.9232 18.5951 98.9596 18.1133 98.0742C15.1966 98.556 12.4818 100.06 9.96875 102.586C7.45573 105.112 6.19922 107.599 6.19922 110.047C6.19922 110.984 6.48568 111.772 7.05859 112.41C7.64453 113.048 8.36068 113.367 9.20703 113.367C11.4076 113.367 13.5625 112.013 15.6719 109.305C17.7812 106.583 18.8359 103.803 18.8359 100.965ZM35.6719 115.848C35.6719 116.056 35.2878 116.544 34.5195 117.312C33.3737 118.458 32.319 119.031 31.3555 119.031C30.9518 119.031 30.5938 118.953 30.2812 118.797C28.5625 121.232 26.9479 122.449 25.4375 122.449C24.6562 122.449 23.9857 122.13 23.4258 121.492C22.8789 120.841 22.6055 120.066 22.6055 119.168C22.6055 117.163 23.9206 115.229 26.5508 113.367C28.3997 112.052 29.9232 111.395 31.1211 111.395C32.2409 111.395 32.8008 111.993 32.8008 113.191C32.8008 114.689 32.013 116.492 30.4375 118.602C30.6979 118.758 30.9909 118.836 31.3164 118.836C31.9023 118.836 32.5859 118.562 33.3672 118.016C34.1484 117.469 34.7865 116.811 35.2812 116.043C35.4245 115.861 35.5286 115.77 35.5938 115.77C35.6458 115.77 35.6719 115.796 35.6719 115.848ZM32.5078 113.23C32.5078 112.176 32.0326 111.648 31.082 111.648C29.8971 111.648 28.4518 112.781 26.7461 115.047C25.0404 117.312 24.1875 119.22 24.1875 120.77C24.1875 121.668 24.6172 122.117 25.4766 122.117C26.8828 122.117 28.4193 120.958 30.0859 118.641C29.7083 118.224 29.5195 117.794 29.5195 117.352C29.5195 116.714 29.7734 116.056 30.2812 115.379C30.7891 114.702 31.2839 114.363 31.7656 114.363C31.974 114.363 32.1172 114.493 32.1953 114.754C32.4036 114.298 32.5078 113.79 32.5078 113.23ZM57.4297 115.887C57.4167 115.926 57.3516 116.03 57.2344 116.199L56.3945 117.352C53.9466 120.75 52.1367 122.449 50.9648 122.449C50.3529 122.449 49.8516 122.221 49.4609 121.766C49.0703 121.31 48.875 120.724 48.875 120.008C48.875 119.279 49.1224 118.491 49.6172 117.645C49.7083 117.488 50.1836 116.792 51.043 115.555C52.1367 113.992 52.6836 112.97 52.6836 112.488C52.6836 111.954 52.4167 111.688 51.8828 111.688C50.1641 111.688 47.2148 115.216 43.0352 122.273C42.7747 122.221 42.4167 122.195 41.9609 122.195C41.4271 122.195 40.9714 122.221 40.5938 122.273L43.3672 117.879C45.1771 114.988 46.082 113.217 46.082 112.566C46.082 111.98 45.8411 111.688 45.3594 111.688C44.6432 111.688 43.4714 112.716 41.8438 114.773C40.2161 116.831 38.6016 119.331 37 122.273C36.7005 122.221 36.3164 122.195 35.8477 122.195C35.3398 122.195 34.8971 122.221 34.5195 122.273L37.3125 117.879C39.2396 114.858 40.2031 112.99 40.2031 112.273C40.2031 111.883 40.0534 111.688 39.7539 111.688C39.1159 111.688 37.7943 113.087 35.7891 115.887C35.6589 116.069 35.5547 116.16 35.4766 116.16C35.4245 116.147 35.3984 116.108 35.3984 116.043C35.3984 115.926 35.9974 115.112 37.1953 113.602C38.3672 112.13 39.2721 111.395 39.9102 111.395C40.3268 111.395 40.6849 111.596 40.9844 112C41.2839 112.391 41.4336 112.859 41.4336 113.406C41.4336 114.161 41.0495 115.21 40.2812 116.551C42.625 113.113 44.3698 111.395 45.5156 111.395C46.0625 111.395 46.5117 111.616 46.8633 112.059C47.2148 112.501 47.3906 113.055 47.3906 113.719C47.3906 114.461 47.0456 115.405 46.3555 116.551C48.8294 113.113 50.6849 111.395 51.9219 111.395C52.4818 111.395 52.9505 111.635 53.3281 112.117C53.7188 112.599 53.9141 113.185 53.9141 113.875C53.9141 114.682 53.5951 115.626 52.957 116.707C52.944 116.72 52.3841 117.553 51.2773 119.207C50.6393 120.145 50.3203 120.861 50.3203 121.355C50.3203 121.889 50.5872 122.156 51.1211 122.156C52.1367 122.156 53.8164 120.516 56.1602 117.234L56.7656 116.395L57.1172 115.965C57.1823 115.835 57.2474 115.77 57.3125 115.77C57.3906 115.77 57.4297 115.809 57.4297 115.887ZM63.875 107.801C63.875 108.257 63.6797 108.686 63.2891 109.09C62.9115 109.48 62.4948 109.676 62.0391 109.676C61.4531 109.676 61.1602 109.383 61.1602 108.797C61.1602 108.367 61.362 107.957 61.7656 107.566C62.1693 107.163 62.5924 106.961 63.0352 106.961C63.5951 106.961 63.875 107.241 63.875 107.801ZM64.1484 115.887C64.1354 115.926 64.0703 116.03 63.9531 116.199L63.1133 117.352C60.6654 120.75 58.7969 122.449 57.5078 122.449C56.8958 122.449 56.3815 122.234 55.9648 121.805C55.5612 121.362 55.3594 120.815 55.3594 120.164C55.3594 119.409 55.8086 118.263 56.707 116.727L59.7539 111.551C60.1576 111.642 60.4766 111.688 60.7109 111.688C61.0625 111.688 61.5573 111.642 62.1953 111.551L57.7617 118.836C57.1237 119.891 56.8047 120.704 56.8047 121.277C56.8047 121.863 57.1107 122.156 57.7227 122.156C58.8815 122.156 60.9193 120.092 63.8359 115.965C63.901 115.835 63.9661 115.77 64.0312 115.77C64.1094 115.77 64.1484 115.809 64.1484 115.887Z" fill="white"/>
</svg>
